<svg xmlns="http://www.w3.org/2000/svg" width="1200" height="630" viewBox="0 0 1200 630">
  <defs>
    <linearGradient id="bg" x1="0" y1="0" x2="1" y2="1"><stop stop-color="#070914"/><stop offset="0.5" stop-color="#0a1630"/><stop offset="1" stop-color="#1b0b34"/></linearGradient>
    <linearGradient id="accent" x1="0" y1="0" x2="1" y2="1"><stop stop-color="#00e5ff"/><stop offset="1" stop-color="#8b5cf6"/></linearGradient>
    <filter id="glow"><feGaussianBlur stdDeviation="18" result="blur"/><feMerge><feMergeNode in="blur"/><feMergeNode in="SourceGraphic"/></feMerge></filter>
  </defs>
  <rect width="1200" height="630" fill="url(#bg)"/>
  <g opacity="0.22" stroke="#00e5ff"><path d="M0 110h1200M0 220h1200M0 330h1200M0 440h1200M0 550h1200M120 0v630M240 0v630M360 0v630M480 0v630M600 0v630M720 0v630M840 0v630M960 0v630M1080 0v630"/></g>
  <circle cx="960" cy="170" r="170" fill="#8b5cf6" opacity="0.24" filter="url(#glow)"/>
  <circle cx="240" cy="470" r="190" fill="#00e5ff" opacity="0.18" filter="url(#glow)"/>
  <rect x="72" y="72" width="1056" height="486" rx="28" fill="rgba(255,255,255,0.07)" stroke="rgba(255,255,255,0.22)"/>
  <rect x="98" y="98" width="82" height="82" rx="18" fill="url(#accent)"/>
  <text x="139" y="149" text-anchor="middle" font-family="Arial, sans-serif" font-weight="900" font-size="30" fill="#070914">U5</text>
  <text x="98" y="270" font-family="Arial, sans-serif" font-weight="900" font-size="76" fill="#f7fbff">Создание игр</text>
  <text x="98" y="354" font-family="Arial, sans-serif" font-weight="900" font-size="76" fill="#f7fbff">на Unreal Engine 5</text>
  <text x="102" y="420" font-family="Arial, sans-serif" font-size="30" fill="#aeb8d8">Blueprint • Characters • Physics • UI • Optimization</text>
  <rect x="795" y="250" width="210" height="118" rx="59" fill="url(#accent)" filter="url(#glow)"/>
  <circle cx="900" cy="309" r="150" fill="none" stroke="#00e5ff" opacity="0.75"/>
</svg>
